<svg xmlns="http://www.w3.org/2000/svg" viewBox="0 0 2048 2048">
  <defs>
    <linearGradient id="g" x1="1" y1="0" x2="0" y2="1">
      <stop offset="0" stop-color="#73E8FE"/>
      <stop offset="1" stop-color="#6CDDF9"/>
    </linearGradient>
  </defs>
  <path d="M2047 830 L1025 175 L0 845 L0 886 L463 674 L1024 358 L1809 778 L2046 882 Z" fill="url(#g)"/>
  <path d="M619 704 L620 752 L669 754 L700 764 L727 787 L737 806 L741 823 L741 1663 L733 1694 L721 1711 L702 1727 L667 1739 L619 1742 L620 1794 L1104 1793 L1103 1741 L1061 1741 L1017 1731 L999 1721 L984 1706 L970 1679 L966 1645 L967 1314 L1132 1314 L1251 1302 L1311 1288 L1365 1268 L1393 1254 L1429 1230 L1466 1196 L1486 1171 L1506 1138 L1526 1087 L1536 1034 L1536 961 L1526 910 L1516 882 L1498 848 L1478 820 L1454 795 L1427 773 L1378 745 L1296 719 L1233 709 L1143 703 Z M967 761 L1054 760 L1087 762 L1140 770 L1179 782 L1212 798 L1252 828 L1279 859 L1293 882 L1309 921 L1319 969 L1321 1024 L1319 1058 L1313 1091 L1301 1128 L1281 1164 L1245 1203 L1213 1225 L1161 1245 L1121 1253 L1088 1257 L1038 1259 L970 1259 L967 1257 Z" fill="url(#g)" fill-rule="evenodd"/>
</svg>